<svg width="219" height="169" viewBox="0 0 219 169" fill="none" xmlns="http://www.w3.org/2000/svg">
<path fill-rule="evenodd" clip-rule="evenodd" d="M94.7813 42.7727L49.0798 130.09L42.8516 126.822L88.553 39.5042L94.7813 42.7727Z" stroke="#010202"/>
<path d="M1.04297 142.793L218.668 18.5496" stroke="#010202"/>
<path fill-rule="evenodd" clip-rule="evenodd" d="M112.768 124.681C112.768 148.988 93.0903 168.692 68.8161 168.692C44.5419 168.692 24.8645 148.988 24.8645 124.681C24.8645 100.375 44.5419 80.6709 68.8161 80.6709C93.0903 80.6709 112.768 100.375 112.768 124.681Z" fill="#010202"/>
<path d="M94.8647 89.2334L25.0696 129.077" stroke="#FEFEFE"/>
<path fill-rule="evenodd" clip-rule="evenodd" d="M151.281 72.0056L200.443 157.419L194.349 160.935L145.189 75.5218L151.281 72.0056Z" stroke="#010202"/>
<path fill-rule="evenodd" clip-rule="evenodd" d="M141.47 98.2761C141.47 103.27 137.426 107.319 132.439 107.319C127.452 107.319 123.408 103.27 123.408 98.2761C123.408 93.2824 127.452 89.2334 132.439 89.2334C137.426 89.2334 141.47 93.2824 141.47 98.2761Z" stroke="#010202"/>
</svg>

