<svg width="26" height="16" viewBox="0 0 26 16" fill="none" xmlns="http://www.w3.org/2000/svg">
<path d="M25.5289 8.01514C25.5289 9.48689 25.1149 10.929 24.3341 12.1765C23.5533 13.4241 22.4372 14.4268 21.1135 15.0701C19.7897 15.7133 18.3117 15.9712 16.8484 15.8141C15.385 15.657 13.9954 15.0914 12.8383 14.1819C13.7719 13.4478 14.5266 12.5113 15.0455 11.4431C15.5645 10.3749 15.8341 9.20275 15.8341 8.01514C15.8341 6.82752 15.5645 5.6554 15.0455 4.58717C14.5266 3.51893 13.7719 2.58247 12.8383 1.84838C13.9954 0.938864 15.385 0.373246 16.8484 0.216183C18.3117 0.0591193 19.7897 0.316948 21.1135 0.960198C22.4372 1.60345 23.5533 2.60616 24.3341 3.85373C25.1149 5.1013 25.5289 6.54338 25.5289 8.01514Z" fill="#F79E1B"/>
<path d="M24.7805 12.8756V12.6231H24.8824V12.5716H24.6231V12.6231H24.7249V12.8756H24.7805ZM25.284 12.8756V12.5711H25.2045L25.1131 12.7805L25.0216 12.5711H24.9421V12.8756H24.9982V12.6459L25.0839 12.8439H25.1421L25.2279 12.6454V12.8756H25.284Z" fill="#F79E1B"/>
</svg>
