<svg width="35" height="10" viewBox="0 0 35 10" fill="none" xmlns="http://www.w3.org/2000/svg">
<path fill-rule="evenodd" clip-rule="evenodd" d="M32.0427 7.85123L33.1457 0.834488C33.1626 0.72557 33.257 0.645383 33.3666 0.64502H34.6083C34.7455 0.64502 34.8507 0.767938 34.8291 0.903949L33.7414 7.79432C33.7131 7.97615 33.5567 8.1098 33.3725 8.1098H32.2635C32.1264 8.1098 32.0211 7.98724 32.0427 7.85123ZM23.5958 0.64538H20.9078C20.7243 0.64538 20.5679 0.779028 20.5392 0.960497L19.4523 7.85123C19.4306 7.98724 19.5359 8.1098 19.6732 8.1098H21.0524C21.1806 8.1098 21.2903 8.01634 21.3103 7.88905L21.6187 5.93581C21.6471 5.75379 21.8038 5.62033 21.9873 5.62033H22.8377C24.6084 5.62033 25.6298 4.76371 25.897 3.0663C26.0176 2.3237 25.9017 1.7402 25.554 1.33144C25.1723 0.882855 24.4953 0.64538 23.5958 0.64538ZM23.9059 3.16213C23.7593 4.12639 23.0224 4.12639 22.3096 4.12639H21.9044L22.1893 2.32552C22.2063 2.21678 22.2997 2.13659 22.4101 2.13659H22.596C23.081 2.13659 23.5393 2.13659 23.7757 2.41316C23.9168 2.57826 23.9597 2.82338 23.9059 3.16213ZM31.6287 3.13122H30.3426C30.232 3.13122 30.1382 3.21141 30.1216 3.32032L30.0647 3.68017L29.9743 3.5498C29.6957 3.1454 29.0749 3.0103 28.4548 3.0103C27.0325 3.0103 25.8182 4.0873 25.5817 5.59815C25.4591 6.35166 25.6331 7.07226 26.0607 7.57485C26.4536 8.03689 27.0141 8.22945 27.6817 8.22945C28.8276 8.22945 29.463 7.49266 29.463 7.49266L29.4057 7.85033C29.384 7.98707 29.4893 8.10962 29.6274 8.10962H30.7861C30.9696 8.10962 31.126 7.97597 31.1548 7.79414L31.8507 3.38979C31.872 3.25432 31.7667 3.13122 31.6287 3.13122ZM29.8349 5.63578C29.7114 6.37093 29.1271 6.86443 28.3828 6.86443C28.0098 6.86443 27.7104 6.7446 27.5186 6.51749C27.3284 6.29202 27.2569 5.9709 27.3167 5.61342C27.4333 4.88445 28.026 4.37496 28.7588 4.37496C29.1243 4.37496 29.4213 4.49624 29.6172 4.72535C29.8139 4.95682 29.8918 5.27975 29.8349 5.63578Z" fill="#179BD7"/>
</svg>
