<svg width="23" height="22" viewBox="0 0 23 22" fill="none" xmlns="http://www.w3.org/2000/svg">
<path fill-rule="evenodd" clip-rule="evenodd" d="M5.21431 5.6668L5.21431 14.1429C5.21431 14.5149 4.91279 14.8164 4.54084 14.8164C4.16889 14.8164 3.86737 14.5149 3.86737 14.1429L3.86737 4.0409C3.86737 3.86229 3.93833 3.69099 4.06463 3.56469C4.19093 3.43839 4.36222 3.36743 4.54084 3.36743L14.6429 3.36743C15.0148 3.36743 15.3164 3.66895 15.3164 4.0409C15.3164 4.41285 15.0148 4.71437 14.6429 4.71437L6.16674 4.71437L18.4864 17.0341C18.7495 17.2971 18.7495 17.7235 18.4864 17.9865C18.2234 18.2495 17.797 18.2495 17.534 17.9865L5.21431 5.6668Z" fill="white"/>
</svg>
