<svg width="8" height="15" viewBox="0 0 8 15" fill="none" xmlns="http://www.w3.org/2000/svg">
<path d="M5.31421 7.571L0.364208 2.621C0.18205 2.4324 0.0812555 2.1798 0.0835339 1.9176C0.0858123 1.6554 0.190981 1.40459 0.376389 1.21918C0.561797 1.03377 0.81261 0.928605 1.07481 0.926326C1.337 0.924048 1.58961 1.02484 1.77821 1.207L7.43521 6.864C7.62268 7.05153 7.72799 7.30584 7.72799 7.571C7.72799 7.83616 7.62268 8.09047 7.43521 8.278L1.77821 13.935C1.58961 14.1172 1.337 14.218 1.07481 14.2157C0.81261 14.2134 0.561797 14.1082 0.376389 13.9228C0.190981 13.7374 0.0858123 13.4866 0.0835339 13.2244C0.0812555 12.9622 0.18205 12.7096 0.364208 12.521L5.31421 7.571Z" fill="#475569"/>
</svg>
