<svg width="48" height="48" viewBox="0 0 48 48" fill="none" xmlns="http://www.w3.org/2000/svg">
<path fill-rule="evenodd" clip-rule="evenodd" d="M16.5599 4.50121C17.27 4.52957 17.8628 5.05238 17.9796 5.75341L22.8857 35.19L27.0577 20.5879C27.2384 19.9556 27.8099 19.5147 28.4674 19.5004C29.1249 19.4861 29.7151 19.9018 29.923 20.5257L32.5811 28.5H37.5C38.3284 28.5 39 29.1716 39 30C39 30.8284 38.3284 31.5 37.5 31.5H31.5C30.8544 31.5 30.2811 31.0869 30.077 30.4744L28.6103 26.0742L23.9423 42.4121C23.7496 43.0864 23.1154 43.5373 22.4152 43.4976C21.715 43.458 21.1357 42.9384 21.0204 42.2466L16.2061 13.3605L11.9552 30.3638C11.7883 31.0316 11.1883 31.5 10.5 31.5H4.5C3.67157 31.5 3 30.8284 3 30C3 29.1716 3.67157 28.5 4.5 28.5H9.32884L15.0448 5.63621C15.2172 4.94673 15.8497 4.47285 16.5599 4.50121Z" fill="white"/>
<path fill-rule="evenodd" clip-rule="evenodd" d="M40.5 28.5C39.6716 28.5 39 29.1716 39 30C39 30.8284 39.6716 31.5 40.5 31.5C41.3284 31.5 42 30.8284 42 30C42 29.1716 41.3284 28.5 40.5 28.5ZM36 30C36 27.5147 38.0147 25.5 40.5 25.5C42.9853 25.5 45 27.5147 45 30C45 32.4853 42.9853 34.5 40.5 34.5C38.0147 34.5 36 32.4853 36 30Z" fill="white"/>
</svg>
