<svg width="48" height="48" viewBox="0 0 48 48" fill="none" xmlns="http://www.w3.org/2000/svg">
<path fill-rule="evenodd" clip-rule="evenodd" d="M11.7119 7.23477C14.3804 5.45171 17.5178 4.5 20.7272 4.5V6L20.7273 4.5C25.0309 4.50027 29.1582 6.21 32.2013 9.25311C35.2444 12.2962 36.9541 16.4235 36.9544 20.7271V20.7272C36.9544 23.9366 36.0027 27.074 34.2196 29.7425C32.4365 32.4111 29.9022 34.491 26.9371 35.7192C23.9719 36.9473 20.7092 37.2687 17.5614 36.6426C14.4137 36.0164 11.5223 34.471 9.25284 32.2015C6.98343 29.9321 5.43794 27.0407 4.81181 23.893C4.18568 20.7452 4.50703 17.4824 5.73523 14.5173C6.96343 11.5522 9.04331 9.01784 11.7119 7.23477ZM20.7272 7.5C24.2352 7.50025 27.5994 8.8939 30.08 11.3744C32.5605 13.855 33.9541 17.2192 33.9544 20.7272M20.7271 7.5C18.111 7.50002 15.5537 8.27578 13.3786 9.72918C11.2034 11.1826 9.508 13.2484 8.50687 15.6654C7.50573 18.0823 7.24379 20.7419 7.75416 23.3077C8.26454 25.8735 9.52431 28.2304 11.3742 30.0802C13.224 31.9301 15.5809 33.1898 18.1467 33.7002C20.7125 34.2106 23.3721 33.9487 25.789 32.9475C28.206 31.9464 30.2718 30.251 31.7252 28.0758C33.1786 25.9006 33.9544 23.3433 33.9544 20.7273" fill="white"/>
<path fill-rule="evenodd" clip-rule="evenodd" d="M30.6542 30.6542C31.24 30.0684 32.1897 30.0684 32.7755 30.6542L43.0608 40.9395C43.6466 41.5253 43.6466 42.475 43.0608 43.0608C42.475 43.6466 41.5253 43.6466 40.9395 43.0608L30.6542 32.7755C30.0684 32.1897 30.0684 31.24 30.6542 30.6542Z" fill="white"/>
</svg>
