<svg width="26" height="25" viewBox="0 0 26 25" fill="none" xmlns="http://www.w3.org/2000/svg">
<path fill-rule="evenodd" clip-rule="evenodd" d="M4.64564 23.7182C4.51922 24.4388 5.23027 25.0029 5.85823 24.6801L12.9907 21.0142L20.1232 24.6801C20.7512 25.0029 21.4622 24.4388 21.3358 23.7182L19.9875 16.0327L25.7113 10.5782C26.2462 10.0684 25.9693 9.13641 25.2527 9.03461L17.2927 7.90382L13.7435 0.873189C13.4238 0.239861 12.5577 0.239861 12.238 0.873189L8.68877 7.90382L0.728752 9.03461C0.0121445 9.13641 -0.264756 10.0684 0.270163 10.5782L5.99395 16.0327L4.64564 23.7182ZM12.6156 19.2199L6.62628 22.2983L7.75444 15.8677C7.80762 15.5646 7.70763 15.2542 7.48998 15.0468L2.76637 10.5453L9.35136 9.60989C9.62358 9.57122 9.86127 9.39736 9.98968 9.14298L12.9907 3.19819L15.9918 9.14298C16.1202 9.39736 16.3579 9.57122 16.6301 9.60989L23.2151 10.5453L18.4915 15.0468C18.2738 15.2542 18.1738 15.5646 18.227 15.8677L19.3552 22.2983L13.3658 19.2199C13.1292 19.0983 12.8522 19.0983 12.6156 19.2199Z" fill="#9D875C"/>
</svg>
