<svg width="40" height="40" viewBox="0 0 40 40" fill="none" xmlns="http://www.w3.org/2000/svg">
<g id="heroicons-solid/banknotes">
<g id="Union">
<path d="M20 12.5C17.9289 12.5 16.25 14.1789 16.25 16.25C16.25 18.3211 17.9289 20 20 20C22.0711 20 23.75 18.3211 23.75 16.25C23.75 14.1789 22.0711 12.5 20 12.5Z" fill="white"/>
<path fill-rule="evenodd" clip-rule="evenodd" d="M2.5 8.125C2.5 6.39911 3.89911 5 5.625 5H34.375C36.1009 5 37.5 6.39911 37.5 8.125V24.375C37.5 26.1009 36.1009 27.5 34.375 27.5H5.625C3.89911 27.5 2.5 26.1009 2.5 24.375V8.125ZM13.75 16.25C13.75 12.7982 16.5482 10 20 10C23.4518 10 26.25 12.7982 26.25 16.25C26.25 19.7018 23.4518 22.5 20 22.5C16.5482 22.5 13.75 19.7018 13.75 16.25ZM31.25 15C30.5596 15 30 15.5596 30 16.25V16.2625C30 16.9529 30.5596 17.5125 31.25 17.5125H31.2625C31.9529 17.5125 32.5125 16.9529 32.5125 16.2625V16.25C32.5125 15.5596 31.9529 15 31.2625 15H31.25ZM7.5 16.25C7.5 15.5596 8.05964 15 8.75 15H8.7625C9.45286 15 10.0125 15.5596 10.0125 16.25V16.2625C10.0125 16.9529 9.45286 17.5125 8.7625 17.5125H8.75C8.05964 17.5125 7.5 16.9529 7.5 16.2625V16.25Z" fill="white"/>
<path d="M3.75 30C3.05964 30 2.5 30.5596 2.5 31.25C2.5 31.9404 3.05964 32.5 3.75 32.5C12.7501 32.5 21.4671 33.7037 29.7496 35.9582C31.7339 36.4983 33.75 35.028 33.75 32.9252V31.25C33.75 30.5596 33.1904 30 32.5 30H3.75Z" fill="white"/>
</g>
</g>
</svg>
