<svg width="18" height="20" viewBox="0 0 18 20" fill="none" xmlns="http://www.w3.org/2000/svg">
<path d="M9.54219 5.63125C8.51932 6.1956 7.49681 6.76053 6.47464 7.32603C5.16477 8.05045 4.14224 8.61911 3.40715 9.03201C2.49997 8.76174 1.74144 8.2738 1.13146 7.56813L1.00241 7.64692C0.908569 7.69951 0.806944 7.71264 0.697397 7.68634C0.587944 7.66009 0.501929 7.60188 0.439351 7.51179L0.0522571 6.86996C-0.00249283 6.77987 -0.0142116 6.67853 0.017054 6.5659C0.0483196 6.45331 0.110898 6.36697 0.204741 6.30692L0.333788 6.23933C-0.0806803 5.20335 -0.0904772 4.15045 0.304444 3.08072C0.699366 2.01094 1.40905 1.19456 2.43351 0.631476C3.47366 0.0609406 4.56847 -0.122988 5.71804 0.0796906C6.86764 0.282369 7.80997 0.815405 8.54506 1.67875L8.67411 1.59991C8.78361 1.54737 8.89306 1.53799 9.00256 1.57179C9.11206 1.60554 9.19808 1.66746 9.26066 1.75755L9.63603 2.39942C9.69074 2.48951 9.70442 2.5871 9.6771 2.69219C9.64972 2.79728 9.58911 2.87987 9.49527 2.93996L9.34274 3.01875C9.67119 3.85206 9.73766 4.7229 9.54219 5.63125ZM12.51 18.3447C12.7993 18.8777 13.161 19.2868 13.595 19.5721C14.0291 19.8574 14.4963 20 14.9968 20C15.8727 20 16.5941 19.7241 17.1611 19.1723C17.7281 18.6205 18.0076 17.9355 17.9998 17.1172C17.9998 16.8545 17.9783 16.5917 17.9353 16.329C17.8923 16.0663 17.8473 15.8448 17.8004 15.6646C17.7535 15.4844 17.6811 15.2799 17.5834 15.0509C17.4856 14.8219 17.4133 14.6605 17.3664 14.5667C17.3195 14.4729 17.2413 14.3264 17.1318 14.1275C17.0223 13.9286 16.9636 13.8179 16.9558 13.7953C16.7838 13.48 16.6059 13.2661 16.4221 13.1534C16.2383 13.0408 16.0878 13.0146 15.9704 13.0746C15.8922 13.1121 15.8375 13.1835 15.8062 13.2886C15.775 13.3937 15.7789 13.5307 15.818 13.6996C15.857 13.8685 15.9313 14.0468 16.0408 14.2345C16.2676 14.6099 16.4925 15.1034 16.7153 15.7153C16.9382 16.3271 17.0496 16.8245 17.0496 17.2073C17.0496 17.6953 16.8365 18.1195 16.4104 18.4798C15.9841 18.8401 15.4934 19.0203 14.9382 19.0203C14.4846 19.0203 13.9997 18.6149 13.4836 17.8042L13.5774 17.7479C13.7886 17.6277 13.945 17.517 14.0466 17.4157C14.1483 17.3143 14.2109 17.1811 14.2343 17.0159C14.2578 16.8508 14.2109 16.6631 14.0936 16.4529L9.65947 6.71228L7.74739 7.77081L8.72103 9.38112C8.76795 9.45616 8.77775 9.54063 8.75038 9.63447C8.723 9.72831 8.67022 9.79772 8.59199 9.84277L8.13453 10.0905L7.67703 10.3383C7.59102 10.3908 7.50303 10.4039 7.41308 10.3777C7.32317 10.3514 7.25085 10.297 7.1961 10.2144L6.23418 8.61536L4.32215 9.67389L10.8912 18.2321C11.1102 18.5098 11.333 18.6618 11.5598 18.6881C11.7866 18.7144 12.0408 18.6375 12.3223 18.4573L12.51 18.3447Z" fill="#F4F6F8"/>
</svg>
