<svg width="20" height="20" viewBox="0 0 20 20" fill="none" xmlns="http://www.w3.org/2000/svg">
<g clip-path="url(#clip0_581_1152)">
<path d="M18.706 8.56798V8.3252C18.706 7.33001 17.8589 6.48059 16.7531 6.23783C16.3767 2.74266 13.4825 0 10.0001 0C6.51772 0 3.62359 2.74257 3.24711 6.23783C2.11774 6.48062 1.29417 7.33001 1.29417 8.3252V8.56798C0.564792 8.71359 0 9.44176 0 10.2914C0 11.1651 0.56475 11.8689 1.29417 12.0147V12.2575C1.29417 13.4469 2.47064 14.4177 3.92943 14.4177H4.47056V6.89348C4.51767 3.81093 6.98831 1.31098 10 1.31098C13.0352 1.31098 15.5294 3.85956 15.5294 7.01484V14.4177H16.0706C17.5059 14.4177 18.7058 13.4469 18.7058 12.2575V12.0147C19.4352 11.8691 20 11.141 20 10.2914C20 9.4174 19.4352 8.71361 18.7058 8.56798H18.706Z" fill="#F4F6F8"/>
<path d="M14.0444 11C13.621 11 13.2914 11.3398 13.2914 11.7768C13.2914 13.6457 11.809 15.1747 9.99737 15.1747C8.18556 15.1747 6.70332 13.6456 6.70332 11.7768C6.70332 11.34 6.37392 11 5.95029 11C5.52685 11 5.19727 11.3398 5.19727 11.7768C5.19727 14.2525 6.96198 16.3399 9.33842 16.6797V19.3446C9.33842 19.7086 9.62072 20 9.97376 20C10.3266 20 10.6091 19.6844 10.6091 19.3446V16.6553C12.9855 16.3155 14.7739 14.2523 14.7739 11.7524C14.7973 11.3398 14.4679 11 14.0444 11Z" fill="#F4F6F8"/>
<path d="M9.99915 13.6846C8.75209 13.6846 7.74023 12.641 7.74023 11.3544V6.33018C7.74023 5.04377 8.75192 4 9.99915 4C11.2462 4 12.2581 5.0436 12.2581 6.33018V11.3544C12.2581 12.6408 11.2462 13.6844 9.99915 13.6844V13.6846Z" fill="#F4F6F8"/>
</g>
<defs>
<clipPath id="clip0_581_1152">
<rect width="20" height="20" fill="white"/>
</clipPath>
</defs>
</svg>
